<svg width="11" height="11" viewBox="0 0 11 11" fill="none" xmlns="http://www.w3.org/2000/svg">
<path d="M6.89257 10.2564L6.89807 10.2597C7.38482 10.5696 7.96272 10.7042 8.53631 10.6413C9.1099 10.5783 9.64489 10.3217 10.0529 9.91365L10.4076 9.55894C10.566 9.40031 10.655 9.18529 10.655 8.9611C10.655 8.73692 10.566 8.5219 10.4076 8.36327L8.91315 6.86972C8.75452 6.7113 8.5395 6.62231 8.31532 6.62231C8.09113 6.62231 7.87611 6.7113 7.71748 6.86972C7.63904 6.94826 7.54588 7.01057 7.44334 7.05308C7.3408 7.09559 7.23088 7.11747 7.11988 7.11747C7.00888 7.11747 6.89896 7.09559 6.79642 7.05308C6.69388 7.01057 6.60072 6.94826 6.52228 6.86972L4.13095 4.47793C3.97252 4.31931 3.88354 4.10429 3.88354 3.8801C3.88354 3.65591 3.97252 3.44089 4.13095 3.28227C4.20949 3.20383 4.27179 3.11067 4.31431 3.00813C4.35682 2.90559 4.3787 2.79567 4.3787 2.68467C4.3787 2.57366 4.35682 2.46375 4.31431 2.36121C4.27179 2.25866 4.20949 2.16551 4.13095 2.08706L2.63694 0.591222C2.47831 0.432797 2.26329 0.343812 2.03911 0.343812C1.81492 0.343812 1.5999 0.432797 1.44127 0.591222L1.08656 0.945935C0.678609 1.35398 0.421962 1.88892 0.358975 2.46247C0.295988 3.03602 0.430424 3.61391 0.740098 4.10077L0.743764 4.10627C2.3814 6.53051 4.46869 8.61826 6.89257 10.2564V10.2564Z" stroke="#F2F1ED" stroke-width="0.678593" stroke-linecap="round" stroke-linejoin="round"/>
</svg>
