<svg width="15" height="14" viewBox="0 0 15 14" fill="none" xmlns="http://www.w3.org/2000/svg">
<path d="M7.5 5.3358C7.32444 5.3358 7.1506 5.37038 6.9884 5.43757C6.8262 5.50475 6.67883 5.60323 6.55469 5.72737C6.43055 5.85151 6.33207 5.99888 6.26489 6.16108C6.1977 6.32328 6.16313 6.49712 6.16313 6.67268C6.16313 6.84824 6.1977 7.02208 6.26489 7.18428C6.33207 7.34648 6.43055 7.49385 6.55469 7.61799C6.67883 7.74213 6.8262 7.84061 6.9884 7.90779C7.1506 7.97498 7.32444 8.00955 7.5 8.00955C7.67556 8.00955 7.8494 7.97498 8.0116 7.90779C8.1738 7.84061 8.32117 7.74213 8.44531 7.61799C8.56945 7.49385 8.66793 7.34648 8.73511 7.18428C8.8023 7.02208 8.83687 6.84824 8.83687 6.67268C8.83687 6.49712 8.8023 6.32328 8.73511 6.16108C8.66793 5.99888 8.56945 5.85151 8.44531 5.72737C8.32117 5.60323 8.1738 5.50475 8.0116 5.43757C7.8494 5.37038 7.67556 5.3358 7.5 5.3358ZM3.755 9.33205L3.46 9.25705C1.26125 8.70143 0 7.7583 0 6.67018C0 5.58205 1.26125 4.63893 3.46 4.0833L3.755 4.00893L3.83812 4.30143C4.06086 5.06875 4.34577 5.81664 4.69 6.53768L4.75313 6.6708L4.69 6.80393C4.34519 7.52472 4.06027 8.27266 3.83812 9.04018L3.755 9.33205ZM3.32312 4.76643C1.65187 5.2358 0.62625 5.95393 0.62625 6.67018C0.62625 7.3858 1.65187 8.10393 3.32312 8.57393C3.52752 7.92389 3.77429 7.28794 4.06187 6.67018C3.77397 6.05256 3.52718 5.41659 3.32312 4.76643ZM11.245 9.33205L11.1619 9.03893C10.9394 8.27165 10.6542 7.52393 10.3094 6.8033L10.2462 6.67018L10.3094 6.53705C10.6541 5.81616 10.9392 5.06824 11.1619 4.3008L11.245 4.0083L11.5406 4.08268C13.7388 4.6383 15 5.58143 15 6.67018C15 7.75893 13.7388 8.70143 11.5406 9.25705L11.245 9.33205ZM10.9381 6.67018C11.2381 7.31955 11.4862 7.95768 11.6769 8.57393C13.3488 8.10393 14.3737 7.3858 14.3737 6.67018C14.3737 5.95393 13.3481 5.23643 11.6769 4.76643C11.4728 5.41657 11.226 6.05253 10.9381 6.67018ZM3.31875 4.7633L3.23563 4.47143C2.6175 2.29268 2.805 0.731428 3.75 0.186428C4.67688 -0.348572 6.165 0.283303 7.72438 1.88393L7.93688 2.10205L7.72438 2.32018C7.17029 2.89618 6.66403 3.51636 6.21063 4.17455L6.12625 4.29518L5.97938 4.30768C5.18182 4.37055 4.39068 4.49805 3.61375 4.68893L3.31875 4.7633ZM4.50375 0.619554C4.33625 0.619554 4.18813 0.655803 4.06313 0.727678C3.44187 1.0858 3.33187 2.3308 3.76 4.0108C4.42602 3.86264 5.101 3.75804 5.78062 3.69768C6.17276 3.14011 6.60119 2.60896 7.06312 2.10768C6.08812 1.1583 5.165 0.619554 4.50375 0.619554ZM10.4969 13.3458C10.4963 13.3458 10.4963 13.3458 10.4969 13.3458C9.60625 13.3458 8.4625 12.6752 7.27562 11.4564L7.06312 11.2383L7.27562 11.0202C7.82957 10.444 8.33562 9.8236 8.78875 9.16518L8.87313 9.04455L9.01937 9.03205C9.81734 8.96953 10.6089 8.84223 11.3863 8.65143L11.6813 8.57705L11.765 8.86955C12.3819 11.0471 12.195 12.6089 11.25 13.1533C11.0205 13.2831 10.7605 13.3495 10.4969 13.3458ZM7.93688 11.2327C8.91187 12.1821 9.835 12.7208 10.4963 12.7208H10.4969C10.6637 12.7208 10.8125 12.6846 10.9369 12.6127C11.5581 12.2546 11.6687 11.0089 11.24 9.32893C10.5738 9.4773 9.89861 9.5819 9.21875 9.64205C8.82709 10.2 8.39885 10.7314 7.93688 11.2327ZM11.6813 4.7633L11.3863 4.68893C10.609 4.4975 9.81741 4.36999 9.01937 4.30768L8.87313 4.29518L8.78875 4.17455C8.33585 3.51615 7.82979 2.89595 7.27562 2.32018L7.06312 2.10205L7.27562 1.88393C8.83437 0.283928 10.3219 -0.347947 11.25 0.186428C12.195 0.731428 12.3825 2.29268 11.765 4.4708L11.6813 4.7633ZM9.21875 3.69768C9.9325 3.76268 10.6106 3.8683 11.24 4.0108C11.6687 2.3308 11.5581 1.0858 10.9369 0.727678C10.3194 0.370803 9.15875 0.917679 7.93688 2.10768C8.39859 2.60898 8.82681 3.14013 9.21875 3.69768ZM4.50375 13.3458C4.23987 13.3496 3.97973 13.2832 3.75 13.1533C2.805 12.6089 2.6175 11.0477 3.23563 8.86955L3.31813 8.57705L3.61313 8.65143C4.335 8.8333 5.13125 8.96143 5.97875 9.03205L6.12562 9.04455L6.20938 9.16518C6.66285 9.82352 7.1691 10.4439 7.72313 11.0202L7.93562 11.2383L7.72313 11.4564C6.53688 12.6752 5.39313 13.3458 4.50375 13.3458ZM3.76 9.32893C3.33125 11.0089 3.44187 12.2546 4.06313 12.6127C4.68 12.9646 5.84 12.4221 7.06312 11.2327C6.60138 10.731 6.17296 10.1997 5.78062 9.64205C5.10096 9.58195 4.42597 9.47735 3.76 9.32893ZM7.5 9.72143C6.98562 9.72143 6.45688 9.69893 5.9275 9.65518L5.78062 9.64268L5.69625 9.52205C5.39682 9.0918 5.11533 8.64934 4.8525 8.1958C4.59045 7.7419 4.34733 7.27734 4.12375 6.8033L4.06125 6.67018L4.12375 6.53705C4.34729 6.063 4.59042 5.59844 4.8525 5.14455C5.11125 4.69705 5.39563 4.2508 5.69625 3.8183L5.78062 3.69768L5.9275 3.68518C6.97416 3.59643 8.02646 3.59643 9.07312 3.68518L9.21938 3.69768L9.30313 3.8183C9.90261 4.67897 10.4288 5.58841 10.8763 6.53705L10.9394 6.67018L10.8763 6.8033C10.4299 7.75251 9.90363 8.66204 9.30313 9.52205L9.21938 9.64268L9.07312 9.65518C8.54375 9.69893 8.01437 9.72143 7.5 9.72143ZM6.12688 9.04393C7.05188 9.1133 7.94812 9.1133 8.87375 9.04393C9.39052 8.28846 9.84933 7.49494 10.2462 6.67018C9.85003 5.84492 9.39097 5.05133 8.87313 4.29643C7.95902 4.22705 7.04098 4.22705 6.12688 4.29643C5.6088 5.05119 5.14973 5.84479 4.75375 6.67018C5.1511 7.49484 5.61011 8.28834 6.12688 9.04393Z" fill="white"/>
</svg>
