<svg width="11" height="11" viewBox="0 0 11 11" fill="none" xmlns="http://www.w3.org/2000/svg">
<path d="M3.66697 5.50001C3.66697 4.48753 4.48753 3.66653 5.50001 3.66653C6.5125 3.66653 7.3335 4.48753 7.3335 5.50001C7.3335 6.5125 6.5125 7.3335 5.50001 7.3335C4.48753 7.3335 3.66697 6.5125 3.66697 5.50001ZM2.67582 5.50001C2.67582 7.05982 3.94021 8.3242 5.50001 8.3242C7.05982 8.3242 8.3242 7.05982 8.3242 5.50001C8.3242 3.94021 7.05982 2.67582 5.50001 2.67582C3.94021 2.67582 2.67587 3.94012 2.67587 5.50001H2.67582ZM7.77605 2.56384C7.776 2.69438 7.81466 2.822 7.88714 2.93056C7.95961 3.03913 8.06266 3.12376 8.18324 3.17377C8.30382 3.22377 8.43652 3.23689 8.56455 3.21148C8.69259 3.18606 8.81022 3.12325 8.90256 3.03098C8.9949 2.93872 9.0578 2.82114 9.08332 2.69312C9.10884 2.56511 9.09582 2.4324 9.04592 2.31178C8.99601 2.19116 8.91146 2.08805 8.80295 2.01548C8.69444 1.94292 8.56685 1.90416 8.43632 1.9041H8.43605C8.26108 1.90419 8.09329 1.97371 7.96954 2.09741C7.8458 2.22111 7.7762 2.38887 7.77605 2.56384ZM3.27801 9.97693C2.74178 9.95251 2.45032 9.86319 2.25663 9.78773C1.99985 9.68776 1.81663 9.5687 1.624 9.37633C1.43137 9.18396 1.31213 9.00092 1.2126 8.74414C1.13709 8.55054 1.04777 8.25899 1.0234 7.72276C0.996734 7.14302 0.99141 6.96887 0.99141 5.5001C0.99141 4.03133 0.997174 3.85766 1.0234 3.27743C1.04782 2.74121 1.1378 2.45023 1.2126 2.25606C1.31257 1.99928 1.43163 1.81606 1.624 1.62343C1.81637 1.4308 1.99941 1.31155 2.25663 1.21203C2.45023 1.13652 2.74178 1.0472 3.27801 1.02283C3.85775 0.996162 4.03191 0.990838 5.50001 0.990838C6.96812 0.990838 7.14245 0.996514 7.72268 1.02291C8.25891 1.04733 8.54988 1.13731 8.74405 1.21211C9.00084 1.31164 9.18405 1.43115 9.37669 1.62352C9.56932 1.81588 9.68812 1.99936 9.78809 2.25615C9.86359 2.44975 9.95291 2.74129 9.97729 3.27752C10.004 3.85775 10.0093 4.03142 10.0093 5.50019C10.0093 6.96896 10.004 7.14262 9.97729 7.72285C9.95287 8.25908 9.86311 8.55054 9.78809 8.74423C9.68812 9.00101 9.56906 9.18423 9.37669 9.37642C9.18432 9.56861 9.00084 9.68785 8.74405 9.78782C8.55045 9.86333 8.25891 9.95265 7.72268 9.97702C7.14293 10.0037 6.96878 10.009 5.50001 10.009C4.03125 10.009 3.85758 10.0037 3.27801 9.97702V9.97693ZM3.23247 0.0333081C2.64696 0.0599722 2.24687 0.152812 1.89746 0.288773C1.53582 0.429177 1.22927 0.617541 0.923166 0.923166C0.617057 1.22879 0.429177 1.53538 0.288773 1.89746C0.152812 2.24708 0.0599722 2.64696 0.0333081 3.23247C0.00620405 3.8189 0 4.00638 0 5.50001C0 6.99364 0.00620405 7.18112 0.0333081 7.76756C0.0599722 8.35311 0.152812 8.75294 0.288773 9.10256C0.429177 9.4642 0.617101 9.77136 0.923166 10.0769C1.22923 10.3823 1.53538 10.5705 1.89746 10.7113C2.24753 10.8472 2.64696 10.9401 3.23247 10.9667C3.81921 10.9934 4.00639 11 5.50001 11C6.99364 11 7.18113 10.9938 7.76756 10.9667C8.35311 10.9401 8.75294 10.8472 9.10257 10.7113C9.4642 10.5705 9.77075 10.3825 10.0769 10.0769C10.383 9.77123 10.5705 9.4642 10.7113 9.10256C10.8472 8.75294 10.9405 8.35307 10.9667 7.76756C10.9934 7.18068 10.9996 6.99364 10.9996 5.50001C10.9996 4.00638 10.9934 3.8189 10.9667 3.23247C10.9401 2.64691 10.8472 2.24686 10.7113 1.89746C10.5705 1.53582 10.3825 1.22927 10.0769 0.923166C9.77124 0.617057 9.4642 0.429177 9.10301 0.288773C8.75294 0.152812 8.35307 0.0595322 7.768 0.0333081C7.18148 0.00651205 6.99408 0 5.50067 0C4.00727 0 3.81943 0.00620405 3.23269 0.0333081" fill="white"/>
</svg>
