<svg width="14" height="12" viewBox="0 0 14 12" fill="none" xmlns="http://www.w3.org/2000/svg">
<path d="M12.5666 2.83197C12.5751 2.95539 12.5751 3.07881 12.5751 3.20337C12.5751 6.99866 9.68588 11.3758 4.40272 11.3758V11.3735C2.84206 11.3758 1.31382 10.9288 0 10.0859C0.226933 10.1132 0.455003 10.1268 0.683642 10.1274C1.97699 10.1285 3.23337 9.69455 4.25087 8.89546C3.02179 8.87214 1.944 8.07076 1.56749 6.90084C1.99803 6.98387 2.44166 6.96681 2.86424 6.85136C1.52426 6.58063 0.560222 5.40331 0.560222 4.03603C0.560222 4.02351 0.560222 4.01157 0.560222 3.99962C0.959488 4.22201 1.40653 4.34543 1.86381 4.35908C0.601742 3.51562 0.212714 1.83665 0.974844 0.523971C2.43313 2.31839 4.58472 3.40926 6.89443 3.52472C6.66295 2.52712 6.97918 1.48175 7.72538 0.780479C8.88223 -0.306978 10.7017 -0.25124 11.7891 0.905036C12.4324 0.778204 13.0489 0.542171 13.6131 0.207744C13.3987 0.872617 12.95 1.43739 12.3505 1.79627C12.9198 1.72916 13.4761 1.57673 13.9999 1.34411C13.6143 1.92197 13.1285 2.42531 12.5666 2.83197Z" fill="white"/>
</svg>
